<svg width="120" height="120" viewBox="0 0 120 120" fill="none" xmlns="http://www.w3.org/2000/svg">
    <rect class="icon-telegram-element-1" fill="#EE3048" width="120" height="120" rx="32" />
    <path class="icon-telegram-element-2" fill="white" fill-rule="evenodd" clip-rule="evenodd" d="M24.068 58.3673C44.5667 49.5151 58.2356 43.6791 65.0749 40.8595C84.6026 32.8088 88.6602 31.4103 91.3049 31.3641C91.8867 31.354 93.1873 31.4969 94.0297 32.1745C94.7411 32.7466 94.9369 33.5195 95.0305 34.0619C95.1242 34.6044 95.2408 35.8401 95.1481 36.8057C94.0899 47.8264 89.511 74.5709 87.1815 86.9142C86.1958 92.1372 84.255 93.8885 82.3761 94.0598C78.2927 94.4323 75.1919 91.385 71.2369 88.8153C65.0482 84.7942 61.5519 82.2911 55.5446 78.3673C48.6021 73.8327 53.1027 71.3403 57.0591 67.2672C58.0946 66.2011 76.0862 49.9805 76.4344 48.5091C76.478 48.3251 76.5183 47.6391 76.1073 47.2769C75.6961 46.9147 75.0892 47.0385 74.6513 47.137C74.0307 47.2767 64.1441 53.7538 44.9915 66.5684C42.1852 68.4785 39.6434 69.4091 37.366 69.3603C34.8553 69.3065 30.0258 67.9533 26.4355 66.7965C22.032 65.3777 18.5321 64.6275 18.8369 62.2179C18.9956 60.963 20.7393 59.6794 24.068 58.3673Z" />   
</svg>